<svg xmlns="http://www.w3.org/2000/svg" xmlns:xlink="http://www.w3.org/1999/xlink" version="1.1" x="0px" y="0px" viewBox="0 0 50 62.5" enable-background="new 0 0 50 50" xml:space="preserve">
    <style>
        .st0{fill:#FFFFFF;}
    </style>
    <g>
        <path class="st0" d="M6.575418,48.7504921c0.8084002,0,0.9685001-0.7797012,1.7983003-1.7586021l0.3598995,0.2639999   c0.3311005,0.2419014,0.7743998,0.2582016,1.1211004,0.0410004c1.5345993-0.9603996,3.2607002-2.0988998,4.8121996-3.4685974   c0.6155005,0.3148994,1.2996006,0.4911003,1.9973011,0.4911003c1.6718998,0,3.1299-0.9322014,3.8808994-2.304203   c2.0826988,1.882103,5.4384995,1.370903,6.8281002-1.1606979c0.8125,0.7333984,1.8554993,1.1348,2.9618988,1.1348   c2.4375,0,4.419899-1.9828987,4.419899-4.419899v-0.4527016c1.952301,0.3508987,2.6748009,0.155899,8.670002,0.2128983   c0.5527,0,1-0.4476967,1-1V21.0493908c0-0.4091988-0.2490997-0.7768993-0.6288986-0.9287987l-8.6711998-3.4612999   l5.9650993-8.1182003c0.3261986-0.4443998,0.2314987-1.0689001-0.2119026-1.3960004l-0.9013977-0.6626l1.5312996-2.0874   c0.1631012-0.2226996,0.1152-0.5356998-0.107399-0.6987998l-3.2002029-2.3496001   c-0.1064987-0.0781-0.2412987-0.1118-0.372097-0.0913c-0.1309013,0.0200001-0.2481003,0.0913-0.3272018,0.1982001   l-1.5294991,2.0848999l-0.906002-0.6659c-0.2128983-0.1567001-0.4804993-0.2212-0.7440987-0.1816001   c-0.2626991,0.0410001-0.4981003,0.184-0.6543007,0.3989l-0.4111977,0.5599999l-1.6816025-1.2353001   c-0.2138996-0.1567998-0.4804993-0.2231998-0.7431984-0.1820998c-0.2617016,0.04-0.4971008,0.1826-0.6543007,0.3964   l-5.7938995,7.8871994c-0.3271999,0.4449005-0.2315006,1.0708008,0.2138004,1.3980007   c0.1777992,0.1308994,0.3857994,0.1938,0.5908985,0.1938c0.3076,0,0.6113014-0.1410999,0.8066006-0.4082003l5.2021999-7.0810003   l0.8757019,0.6434002l-6.3042011,8.5857c-1.8650017,0.0558004-3.6189003,0.6239004-5.1604004,1.6604996   c-4.4671001,3.4738998-9.0327005,4.5603008-10.4492006,9.9966011C9.6220179,28.8940926,7.244318,32.22509,9.9465179,34.3056908   c0.1701002,0.1338997,0.3542004,0.243,0.5448999,0.3390007c-0.7992001,1.4776993-2.3282003,1.7794991-4.4639001,9.8381996   c-0.2258,0.8511009,0.6309004,1.2120018,0.7341003,1.3263016l-0.9909,1.3494987   C5.282618,47.8222923,5.7658181,48.7504921,6.575418,48.7504921z M19.0851173,38.7392921v1.160099   c0,1.3344994-1.0858994,2.420002-2.4208984,2.420002c-0.1445007,0-0.2861004-0.0146027-0.4250011-0.0393028   c0.262701-0.3011971,0.5170994-0.6102982,0.7609997-0.9382973l2.149601-2.9237022   C19.1149178,38.520092,19.0851173,38.6252899,19.0851173,38.7392921z M19.4884186,37.957592l0.1033001-0.1403999   c0.0977001-0.0093994,0.1938992-0.0247002,0.2908001-0.0369987C19.7355175,37.8114929,19.6037178,37.8694916,19.4884186,37.957592z    M32.7550163,37.5693932c0,1.3344002-1.0858974,2.419899-2.419899,2.419899c-1.3605995,0-2.4208984-1.0970993-2.4208984-2.419899   c0-1.3226013-2-1.3239021-2,0v1.169899c0,1.3290977-1.0810013,2.410099-2.4092007,2.410099   c-1.3015003,0-2.4199009-1.0363007-2.4199009-2.410099c0-0.5359993-0.4237995-0.9653015-0.9540997-0.9906998   c2.5312996-0.3906021,3.7653999-1.5125008,5.2178001-2.25c2.2480011-1.2798996,2.0258999-1.7097015,3.6217995-0.9552002   c1.1428013,0.8899994,2.4238014,1.5840988,3.784399,2.0552979V37.5693932z M42.4250183,21.7270908v13.602499   c-3.4538994-0.2882996-7.9510002,1.0451012-12.3174-2.4325981c-0.0039997-0.0032005-0.1879997-0.118-0.1924-0.1201019   c-2.7912998-1.334198-3.4172001-0.2344971-5.5576,0.9849014l-1.9843998,1.1366997   c-0.9814014,0.5527-2.0439014,0.8735008-3.210001,0.9584999c-0.0370998,0.0049019-0.0692997,0.0023994-0.1084003,0.0023994   c-1.865099,0-2.6801987-2.3064003-1.7059994-2.7841988l2.4404011-1.2098999   c3.2890987-1.6294003,6.2655983-3.7803001,8.8466988-6.3925991c0.0177994-0.0181007,0.023901-0.0422001,0.0400009-0.0613003   c0.0165997-0.0191002,0.0395985-0.0289001,0.0546989-0.0495014l5.1707001-7.0372982L42.4250183,21.7270908z M25.7868176,25.3962917   l-3.9090004-2.8715l1.7586002-2.3943005l4.1931,3.0804005l-0.6576996,0.8948002   C26.7262173,24.555191,26.2570171,24.9763908,25.7868176,25.3962917z M38.0119171,2.4487917l2.3935013,1.7577999   l-1.2348022,1.6834002l-2.3930969-1.7590003L38.0119171,2.4487917z M34.6916199,5.0781918l4.1962967,3.0830002   l-1.4641991,1.9924994l-4.1949997-3.0835996L34.6916199,5.0781918z M32.6369171,7.8757915l4.1949997,3.0833998   l-8.4103985,11.4459009l-4.1933002-3.0804005L32.6369171,7.8757915z M10.691618,31.333992l1.4013004-5.3227005   c0.4882994-1.8736,1.6415997-3.4970989,3.2480993-4.5708008l6.3818007-4.2714996   c0.7238998-0.487299,1.5363998-0.8332996,2.3815994-1.0558987c-4.6261997,6.2975998-7.7341995,10.5283985-12.3837996,16.8576984   C10.9483175,32.8242912,10.5120182,32.036293,10.691618,31.333992z M21.2861176,23.3306923l3.7294006,2.7395992   c-1.8737011,1.5654011-3.9157009,2.9137993-6.1149006,4.0030003l-2.4375,1.2084999   c-0.9287996,0.4564991-1.5283995,1.4174995-1.5283995,2.4477005c0,1.6687012,0.9970999,3.1012993,2.4213991,3.7522011   c-1.9178991,2.0109978-1.5319996,3.6560974-7.9896994,7.7590981c-0.1000996-0.0734978-1.3296003-0.9758987-1.2294998-0.902401   C8.985918,41.2087898,13.3883181,34.9850922,21.2861176,23.3306923z"/>
    </g>
</svg>
